<svg width="46" height="46" viewBox="0 0 46 46" fill="none" xmlns="http://www.w3.org/2000/svg">
<path d="M39.9475 3.82275H5.92522C5.36761 3.82275 4.83283 4.04427 4.43853 4.43856C4.04424 4.83286 3.82272 5.36764 3.82272 5.92526V39.9475C3.82272 40.5052 4.04424 41.0399 4.43853 41.4342C4.83283 41.8285 5.36761 42.05 5.92522 42.05H24.2361V27.237H19.2666V21.5029H24.2361V17.2023C24.1332 16.1926 24.2524 15.1727 24.5853 14.214C24.9183 13.2552 25.457 12.381 26.1636 11.6525C26.8703 10.924 27.7277 10.3589 28.6759 9.99692C29.624 9.6349 30.6399 9.4847 31.6522 9.55685C33.1399 9.54658 34.6269 9.62316 36.1057 9.78621V14.9469H33.0666C30.6583 14.9469 30.1996 16.0937 30.1996 17.7566V21.4455H35.9337L35.1882 27.1796H30.1996V42.05H39.9475C40.2236 42.05 40.497 41.9957 40.7521 41.89C41.0072 41.7843 41.239 41.6295 41.4342 41.4342C41.6294 41.239 41.7843 41.0072 41.89 40.7521C41.9956 40.4971 42.05 40.2237 42.05 39.9475V5.92526C42.05 5.64915 41.9956 5.37575 41.89 5.12066C41.7843 4.86558 41.6294 4.6338 41.4342 4.43856C41.239 4.24333 41.0072 4.08846 40.7521 3.9828C40.497 3.87714 40.2236 3.82275 39.9475 3.82275Z" fill="white"/>
</svg>
