<svg width="100" height="100" viewBox="0 0 100 100" fill="none" xmlns="http://www.w3.org/2000/svg">
<path d="M20.6397 14.7556L40.0101 34.1219C42.9859 32.2547 46.4278 31.2642 49.9409 31.2642C53.4539 31.2642 56.8958 32.2547 59.8716 34.1219L79.2295 14.764C71.0053 7.9154 60.6412 4.16519 49.9388 4.16519C39.2364 4.16519 28.8723 7.9154 20.648 14.764M85.1135 20.6396L65.7472 40.01C67.6136 42.9853 68.6036 46.4264 68.6036 49.9387C68.6036 53.4509 67.6136 56.892 65.7472 59.8673L85.1093 79.2294C91.9579 71.0052 95.7081 60.6411 95.7081 49.9387C95.7081 39.2363 91.9579 28.8722 85.1093 20.6479M79.2295 85.1134L59.8674 65.7471C56.8917 67.6144 53.4498 68.6048 49.9367 68.6048C46.4236 68.6048 42.9817 67.6144 40.006 65.7471L20.6397 85.1175C28.8643 91.9672 39.2292 95.7181 49.9325 95.7181C60.6359 95.7181 71.0008 91.9672 79.2254 85.1175M14.7599 79.2294L34.122 59.859C32.2556 56.8837 31.2656 53.4426 31.2656 49.9304C31.2656 46.4181 32.2556 42.977 34.122 40.0017L14.7599 20.6396C7.91134 28.8639 4.16113 39.2279 4.16113 49.9304C4.16113 60.6328 7.91134 70.9968 14.7599 79.2211" fill="#0D99FF"/>
</svg>
