<svg width="99" height="99" viewBox="0 0 99 99" fill="none" xmlns="http://www.w3.org/2000/svg">
<path d="M6.1875 36.9876C6.1875 26.2065 6.1875 20.816 8.28562 16.6982C10.1312 13.0761 13.0761 10.1312 16.6982 8.28562C20.816 6.1875 26.2065 6.1875 36.9876 6.1875H62.0124C72.7935 6.1875 78.184 6.1875 82.3018 8.28562C85.924 10.1312 88.8689 13.0761 90.7143 16.6982C92.8125 20.816 92.8125 26.2065 92.8125 36.9876V62.0124C92.8125 72.7935 92.8125 78.184 90.7143 82.3018C88.8689 85.924 85.924 88.8689 82.3018 90.7143C78.184 92.8125 72.7935 92.8125 62.0124 92.8125H36.9876C26.2065 92.8125 20.816 92.8125 16.6982 90.7143C13.0761 88.8689 10.1312 85.924 8.28562 82.3018C6.1875 78.184 6.1875 72.7935 6.1875 62.0124V36.9876Z" fill="white"/>
<path d="M68.2218 26.3679L49.6992 40.8233L30.7532 26.3679V26.3718L30.7761 26.3913V46.6327L49.4857 61.4004L68.2218 47.2029V26.3679Z" fill="#EA4335"/>
<path d="M73.0855 22.8516L68.2212 26.3678V47.2029L83.5275 35.4513V28.372C83.5275 28.372 81.6694 18.2611 73.0855 22.8516Z" fill="#FBBC05"/>
<path d="M68.2212 47.2035V74.2271H79.9527C79.9527 74.2271 83.2908 73.8831 83.5312 70.0778V35.4516L68.2212 47.2035Z" fill="#34A853"/>
<path d="M30.7769 74.2497V46.6324L30.7532 46.6129L30.7769 74.2497Z" fill="#C5221F"/>
<path d="M30.7523 26.372L25.9147 22.8754C17.3305 18.2849 15.4688 28.3919 15.4688 28.3919V35.4711L30.7523 46.6132V26.372Z" fill="#C5221F"/>
<path d="M30.7532 26.3716V46.6129L30.7769 46.6324V26.3912L30.7532 26.3716Z" fill="#C5221F"/>
<path d="M15.4688 35.4748V70.101C15.7053 73.91 19.0474 74.25 19.0474 74.25H30.779L30.7523 46.6129L15.4688 35.4748Z" fill="#4285F4"/>
</svg>
