<svg width="46" height="46" viewBox="0 0 46 46" fill="none" xmlns="http://www.w3.org/2000/svg">
<path d="M14.9086 3.82275H30.9641C37.0805 3.82275 42.05 8.7923 42.05 14.9087V30.9641C42.05 33.9043 40.8821 36.7241 38.803 38.8031C36.724 40.8821 33.9043 42.05 30.9641 42.05H14.9086C8.79228 42.05 3.82273 37.0805 3.82273 30.9641V14.9087C3.82273 11.9685 4.99071 9.14876 7.06972 7.06974C9.14873 4.99073 11.9685 3.82275 14.9086 3.82275ZM14.5264 7.64548C12.7014 7.64548 10.9513 8.37044 9.66083 9.66086C8.37041 10.9513 7.64546 12.7015 7.64546 14.5264V31.3464C7.64546 35.15 10.7228 38.2273 14.5264 38.2273H31.3464C33.1713 38.2273 34.9215 37.5024 36.2119 36.2119C37.5023 34.9215 38.2273 33.1713 38.2273 31.3464V14.5264C38.2273 10.7228 35.15 7.64548 31.3464 7.64548H14.5264ZM32.971 10.5125C33.6047 10.5125 34.2124 10.7642 34.6605 11.2123C35.1085 11.6604 35.3603 12.2681 35.3603 12.9017C35.3603 13.5354 35.1085 14.1431 34.6605 14.5912C34.2124 15.0392 33.6047 15.2909 32.971 15.2909C32.3374 15.2909 31.7297 15.0392 31.2816 14.5912C30.8336 14.1431 30.5818 13.5354 30.5818 12.9017C30.5818 12.2681 30.8336 11.6604 31.2816 11.2123C31.7297 10.7642 32.3374 10.5125 32.971 10.5125ZM22.9364 13.3796C25.471 13.3796 27.9018 14.3865 29.6941 16.1787C31.4863 17.971 32.4932 20.4018 32.4932 22.9364C32.4932 25.471 31.4863 27.9018 29.6941 29.6941C27.9018 31.4863 25.471 32.4932 22.9364 32.4932C20.4018 32.4932 17.9709 31.4863 16.1787 29.6941C14.3864 27.9018 13.3796 25.471 13.3796 22.9364C13.3796 20.4018 14.3864 17.971 16.1787 16.1787C17.9709 14.3865 20.4018 13.3796 22.9364 13.3796ZM22.9364 17.2023C21.4156 17.2023 19.9571 17.8064 18.8818 18.8818C17.8064 19.9571 17.2023 21.4156 17.2023 22.9364C17.2023 24.4572 17.8064 25.9157 18.8818 26.991C19.9571 28.0664 21.4156 28.6705 22.9364 28.6705C24.4572 28.6705 25.9156 28.0664 26.991 26.991C28.0663 25.9157 28.6705 24.4572 28.6705 22.9364C28.6705 21.4156 28.0663 19.9571 26.991 18.8818C25.9156 17.8064 24.4572 17.2023 22.9364 17.2023Z" fill="white"/>
</svg>
