<svg width="101" height="101" viewBox="0 0 101 101" fill="none" xmlns="http://www.w3.org/2000/svg">
<path d="M96.9688 12.0007L80.8398 27.2422L96.2684 53.2451L96.9688 52.3733V12.0007ZM4 12.2231V56.4008C4.875 56.5147 5.92637 56.5774 6.9873 56.5886C9.30566 56.613 11.2166 56.4615 12.29 56.3649L22.5742 30.3082L4 12.2231ZM80.0066 32.7305L78.6316 33.6215C78.6023 33.6405 77.5844 34.2739 77.2854 34.4605L75.2141 35.7161L75.2434 35.7337C74.2836 36.3315 74.0168 36.4997 72.9275 37.177C72.3748 37.5206 72.3611 37.5286 71.8369 37.8546C67.874 35.7215 63.574 34.0821 58.5561 32.7929C52.2451 34.702 45.5596 37.4647 38.8838 40.0567C41.6553 43.3984 44.7354 44.4866 47.8379 44.5255C51.4355 44.5705 55.1133 43.004 57.6461 41.2489L59.0914 40.2476L60.5418 42.3461L83.0912 58.6429L91.9021 52.7783L80.0066 32.7305ZM25.1869 33.2664L16.3262 55.7152L19.5781 58.2191L25.5928 51.3927L26.0746 50.8461L26.8012 50.8007C27.0941 50.7823 27.3832 50.7739 27.6684 50.7753C29.6629 50.7882 31.4461 51.3065 32.7836 52.4885C33.7742 53.3631 34.4328 54.5275 34.8148 55.8757L35.2602 55.848C37.6029 55.7013 39.7137 56.1853 41.2426 57.5357C42.7713 58.8865 43.5141 60.9236 43.6605 63.2698L43.6742 63.481C44.932 63.7189 46.058 64.2148 46.9736 65.0237C48.5025 66.3743 49.2451 68.411 49.3916 70.7572L49.4301 71.3674C49.5549 71.407 49.6786 71.4499 49.8012 71.4961L50.1982 70.9381L51.2666 69.4365L51.816 68.664L53.2477 69.6855L64.8547 77.9651C66.1172 77.6534 66.8697 77.1682 67.2883 76.5793C67.7076 75.9902 67.9197 75.1184 67.8008 73.8204L53.8832 63.8405L52.4539 62.8157L53.4676 61.3986L54.7703 59.5671L56.202 60.5886L71.8924 71.7802C73.1549 71.4687 73.908 70.9835 74.3266 70.3946C74.7453 69.806 74.9574 68.9363 74.8393 67.6406L56.7928 54.821L55.3592 53.8021L57.3932 50.9312L58.8273 51.9497L76.877 64.7722C78.1406 64.4605 78.8939 63.9752 79.3131 63.386C79.7326 62.7964 79.9445 61.9239 79.8248 60.6236L58.2545 45.0347C55.3922 46.7339 51.7307 48.095 47.7941 48.0457C43.1873 47.988 38.2596 45.7838 34.6346 40.2132C34.4912 39.9929 34.3989 39.7432 34.3646 39.4826C34.3302 39.2219 34.3546 38.9568 34.4359 38.7068C34.5173 38.4568 34.6536 38.2282 34.8347 38.0379C35.0159 37.8475 35.2373 37.7002 35.4828 37.6068C38.0246 36.6397 40.5928 35.6179 43.167 34.6041L25.1873 33.2675L25.1869 33.2664ZM27.7068 54.3135L18.417 64.8567C18.598 66.176 19.0107 66.9966 19.5668 67.4879C20.1229 67.9791 20.9877 68.2868 22.3176 68.3022L31.6072 57.7595C31.4262 56.44 31.0135 55.619 30.4574 55.1277C29.9014 54.6364 29.0367 54.329 27.7066 54.3137L27.7068 54.3135ZM36.1654 59.3612L25.6746 71.2674C25.8555 72.5869 26.2684 73.4079 26.8242 73.8992C27.3809 74.3901 28.2451 74.6977 29.5752 74.7128L40.066 62.8069C39.8852 61.4872 39.4723 60.6666 38.9162 60.1751C38.3602 59.6837 37.4957 59.3762 36.1656 59.3608L36.1654 59.3612ZM41.8959 66.8488L32.6068 77.3919C32.7879 78.7112 33.2006 79.532 33.7566 80.0235C34.3129 80.5147 35.1775 80.822 36.5074 80.8374L45.7969 70.2955C45.6158 68.9754 45.2031 68.1546 44.6471 67.6631C44.091 67.1718 43.2264 66.8646 41.8963 66.8491L41.8959 66.8488ZM46.7205 74.5027L39.1436 83.1626C39.3242 84.4846 39.7369 85.3064 40.2936 85.798C40.8492 86.2889 41.7129 86.5964 43.041 86.6122L50.6184 77.9524C50.4375 76.6307 50.0246 75.809 49.468 75.3169C48.9125 74.826 48.0488 74.519 46.7207 74.5029L46.7205 74.5027ZM53.6232 75.4395C53.9541 76.3431 54.1453 77.3444 54.2119 78.4106L54.2572 79.135L52.6406 80.9827L57.8602 84.7058C59.1227 84.3941 59.875 83.9088 60.2938 83.32C60.7127 82.7313 60.9252 81.8603 60.807 80.5638L53.6234 75.4399L53.6232 75.4395Z" fill="#0D99FF"/>
</svg>
