<svg width="101" height="101" viewBox="0 0 101 101" fill="none" xmlns="http://www.w3.org/2000/svg">
<path d="M62.2484 58.41C67.6241 58.4104 72.7921 60.4859 76.6747 64.2037C80.5574 67.9216 82.855 72.9948 83.0883 78.3654L83.1091 79.2708V83.4429C83.1098 85.5481 82.3147 87.5757 80.8833 89.1193C79.4519 90.6629 77.4899 91.6085 75.3907 91.7664L74.7648 91.7872H16.3548C14.2496 91.7879 12.222 90.9928 10.6784 89.5614C9.13477 88.13 8.18925 86.168 8.03136 84.0687L8.0105 83.4429V79.2708C8.01081 73.8951 10.0863 68.7271 13.8042 64.8444C17.5221 60.9618 22.5953 58.6642 27.9659 58.4309L28.8712 58.41H62.2484ZM87.2813 54.2379C88.3878 54.2379 89.449 54.6775 90.2314 55.4599C91.0139 56.2423 91.4534 57.3035 91.4534 58.41C91.4534 59.5166 91.0139 60.5778 90.2314 61.3602C89.449 62.1426 88.3878 62.5822 87.2813 62.5822H83.1091C82.0026 62.5822 80.9414 62.1426 80.159 61.3602C79.3765 60.5778 78.937 59.5166 78.937 58.41C78.937 57.3035 79.3765 56.2423 80.159 55.4599C80.9414 54.6775 82.0026 54.2379 83.1091 54.2379H87.2813ZM45.5598 8.3443C51.0924 8.3443 56.3984 10.5421 60.3106 14.4543C64.2227 18.3664 66.4205 23.6724 66.4205 29.205C66.4205 34.7376 64.2227 40.0436 60.3106 43.9558C56.3984 47.8679 51.0924 50.0658 45.5598 50.0658C40.0272 50.0658 34.7212 47.8679 30.809 43.9558C26.8969 40.0436 24.6991 34.7376 24.6991 29.205C24.6991 23.6724 26.8969 18.3664 30.809 14.4543C34.7212 10.5421 40.0272 8.3443 45.5598 8.3443ZM87.2813 41.7215C88.3878 41.7215 89.449 42.161 90.2314 42.9435C91.0139 43.7259 91.4534 44.7871 91.4534 45.8936C91.4534 47.0001 91.0139 48.0613 90.2314 48.8438C89.449 49.6262 88.3878 50.0658 87.2813 50.0658H78.937C77.8305 50.0658 76.7692 49.6262 75.9868 48.8438C75.2044 48.0613 74.7648 47.0001 74.7648 45.8936C74.7648 44.7871 75.2044 43.7259 75.9868 42.9435C76.7692 42.161 77.8305 41.7215 78.937 41.7215H87.2813ZM87.2813 29.205C88.3447 29.2062 89.3675 29.6134 90.1407 30.3434C90.914 31.0734 91.3793 32.0711 91.4416 33.1327C91.5039 34.1942 91.1586 35.2395 90.476 36.055C89.7935 36.8705 88.8254 37.3945 87.7694 37.5201L87.2813 37.5493H74.7648C73.7014 37.5481 72.6786 37.141 71.9054 36.411C71.1321 35.681 70.6668 34.6833 70.6045 33.6217C70.5422 32.5601 70.8875 31.5148 71.5701 30.6994C72.2526 29.8839 73.2207 29.3598 74.2767 29.2342L74.7648 29.205H87.2813Z" fill="#0D99FF"/>
</svg>
