<svg width="100" height="100" viewBox="0 0 100 100" fill="none" xmlns="http://www.w3.org/2000/svg">
<path d="M50.1667 47.6691C47.404 47.6691 44.7545 46.5773 42.801 44.6339C40.8475 42.6905 39.75 40.0546 39.75 37.3062C39.75 34.5578 40.8475 31.922 42.801 29.9786C44.7545 28.0352 47.404 26.9434 50.1667 26.9434C52.9293 26.9434 55.5789 28.0352 57.5324 29.9786C59.4859 31.922 60.5833 34.5578 60.5833 37.3062C60.5833 38.6671 60.3139 40.0146 59.7904 41.2719C59.2669 42.5292 58.4996 43.6716 57.5324 44.6339C56.5651 45.5962 55.4168 46.3595 54.153 46.8803C52.8891 47.401 51.5346 47.6691 50.1667 47.6691ZM50.1667 8.29028C42.4312 8.29028 35.0125 11.3473 29.5427 16.7889C24.0729 22.2304 21 29.6107 21 37.3062C21 59.0682 50.1667 91.193 50.1667 91.193C50.1667 91.193 79.3333 59.0682 79.3333 37.3062C79.3333 29.6107 76.2604 22.2304 70.7906 16.7889C65.3208 11.3473 57.9021 8.29028 50.1667 8.29028Z" fill="#0D99FF"/>
</svg>
