<svg width="100" height="100" viewBox="0 0 100 100" fill="none" xmlns="http://www.w3.org/2000/svg">
<path opacity="0.2" d="M84.7637 15.6046V84.2645H22.3456C20.6901 84.2645 19.1025 83.6069 17.9319 82.4363C16.7614 81.2658 16.1038 79.6781 16.1038 78.0227V21.8464C16.1038 20.1909 16.7614 18.6033 17.9319 17.4327C19.1025 16.2622 20.6901 15.6046 22.3456 15.6046H84.7637Z" fill="#0D99FF"/>
<path d="M62.0046 52.1426L46.4 67.7471C46.1101 68.0371 45.7658 68.2671 45.387 68.424C45.0081 68.5809 44.6021 68.6617 44.192 68.6617C43.7819 68.6617 43.3759 68.5809 42.997 68.424C42.6181 68.2671 42.2739 68.0371 41.9839 67.7471C41.694 67.4571 41.464 67.1129 41.307 66.734C41.1501 66.3552 41.0693 65.9491 41.0693 65.5391C41.0693 65.129 41.1501 64.7229 41.307 64.3441C41.464 63.9652 41.694 63.621 41.9839 63.331L52.2634 53.0554H16.1038C15.2761 53.0554 14.4823 52.7266 13.897 52.1413C13.3117 51.5561 12.9829 50.7622 12.9829 49.9345C12.9829 49.1068 13.3117 48.313 13.897 47.7277C14.4823 47.1424 15.2761 46.8136 16.1038 46.8136H52.2634L41.9839 36.538C41.3983 35.9524 41.0693 35.1582 41.0693 34.33C41.0693 33.5018 41.3983 32.7076 41.9839 32.1219C42.5695 31.5363 43.3638 31.2073 44.192 31.2073C45.0202 31.2073 45.8144 31.5363 46.4 32.1219L62.0046 47.7265C62.2947 48.0163 62.5249 48.3605 62.682 48.7394C62.839 49.1183 62.9199 49.5244 62.9199 49.9345C62.9199 50.3447 62.839 50.7508 62.682 51.1297C62.5249 51.5085 62.2947 51.8527 62.0046 52.1426ZM84.7638 12.4836H59.7965C58.9688 12.4836 58.175 12.8125 57.5897 13.3977C57.0044 13.983 56.6756 14.7768 56.6756 15.6045C56.6756 16.4323 57.0044 17.2261 57.5897 17.8114C58.175 18.3966 58.9688 18.7255 59.7965 18.7255H81.6429V81.1436H59.7965C58.9688 81.1436 58.175 81.4724 57.5897 82.0577C57.0044 82.643 56.6756 83.4368 56.6756 84.2645C56.6756 85.0922 57.0044 85.886 57.5897 86.4713C58.175 87.0566 58.9688 87.3854 59.7965 87.3854H84.7638C85.5915 87.3854 86.3853 87.0566 86.9706 86.4713C87.5559 85.886 87.8847 85.0922 87.8847 84.2645V15.6045C87.8847 14.7768 87.5559 13.983 86.9706 13.3977C86.3853 12.8125 85.5915 12.4836 84.7638 12.4836Z" fill="#0D99FF"/>
</svg>
