<svg width="125" height="125" viewBox="0 0 125 125" fill="none" xmlns="http://www.w3.org/2000/svg">
<rect x="0.0671387" y="0.0671997" width="124.354" height="124.354" rx="62.177" fill="#C5DAFF"/>
<path d="M96.9391 28.5443H28.5444C26.8953 28.5443 25.3138 29.1993 24.1478 30.3654C22.9817 31.5314 22.3267 33.1129 22.3267 34.762V90.7213C22.3267 92.3703 22.9817 93.9518 24.1478 95.1179C25.3138 96.2839 26.8953 96.939 28.5444 96.939H33.7478C34.3362 96.9392 34.9125 96.7724 35.4099 96.458C35.9072 96.1437 36.3052 95.6946 36.5574 95.1631C38.0692 91.9713 40.456 89.2744 43.4402 87.3858C46.4245 85.4972 49.8835 84.4946 53.4152 84.4946C56.9468 84.4946 60.4059 85.4972 63.3901 87.3858C66.3744 89.2744 68.7612 91.9713 70.2729 95.1631C70.5252 95.6946 70.9231 96.1437 71.4205 96.458C71.9178 96.7724 72.4942 96.9392 73.0826 96.939H96.9391C98.5882 96.939 100.17 96.2839 101.336 95.1179C102.502 93.9518 103.157 92.3703 103.157 90.7213V34.762C103.157 33.1129 102.502 31.5314 101.336 30.3654C100.17 29.1993 98.5882 28.5443 96.9391 28.5443ZM53.4152 78.2859C50.9557 78.2859 48.5514 77.5566 46.5064 76.1901C44.4614 74.8237 42.8676 72.8816 41.9264 70.6093C40.9852 68.337 40.7389 65.8367 41.2187 63.4244C41.6985 61.0122 42.8829 58.7964 44.622 57.0573C46.3611 55.3182 48.5769 54.1338 50.9892 53.654C53.4014 53.1742 55.9017 53.4204 58.174 54.3617C60.4463 55.3029 62.3884 56.8967 63.7548 58.9417C65.1213 60.9867 65.8506 63.391 65.8506 65.8505C65.8506 69.1486 64.5404 72.3115 62.2083 74.6436C59.8763 76.9757 56.7133 78.2859 53.4152 78.2859ZM96.9391 90.7213H74.9556C73.5999 88.3847 71.8726 86.2847 69.8416 84.5036H87.6126C88.4371 84.5036 89.2278 84.1761 89.8108 83.593C90.3939 83.01 90.7214 82.2193 90.7214 81.3947V44.0885C90.7214 43.264 90.3939 42.4732 89.8108 41.8902C89.2278 41.3072 88.4371 40.9797 87.6126 40.9797H37.8709C37.0464 40.9797 36.2557 41.3072 35.6726 41.8902C35.0896 42.4732 34.7621 43.264 34.7621 44.0885V81.3947C34.7617 82.0842 34.9906 82.7543 35.4127 83.2995C35.8348 83.8447 36.4261 84.2341 37.0937 84.4064C35.0154 86.2069 33.2516 88.3411 31.8747 90.7213H28.5444V34.762H96.9391V90.7213Z" fill="#0D99FF"/>
</svg>
