<svg width="99" height="99" viewBox="0 0 99 99" fill="none" xmlns="http://www.w3.org/2000/svg">
<path fill-rule="evenodd" clip-rule="evenodd" d="M49.5 95.9062C73.4209 95.9062 92.8125 76.5146 92.8125 52.5938C92.8125 28.6729 73.4209 9.28125 49.5 9.28125C25.5792 9.28125 6.1875 28.6729 6.1875 52.5938C6.1875 60.3618 8.23247 67.6523 11.8134 73.9561L6.1875 95.9062L28.8178 90.6586C34.9637 94.0048 42.0097 95.9062 49.5 95.9062ZM49.5 89.2429C69.7409 89.2429 86.1492 72.8346 86.1492 52.5938C86.1492 32.3532 69.7409 15.9447 49.5 15.9447C29.2593 15.9447 12.851 32.3532 12.851 52.5938C12.851 60.4089 15.297 67.6526 19.4654 73.6009L16.1827 85.911L28.7098 82.7792C34.6172 86.8558 41.7799 89.2429 49.5 89.2429Z" fill="#BFC8D0"/>
<path d="M86.625 49.5C86.625 70.0035 70.0035 86.625 49.5 86.625C41.6796 86.625 34.4238 84.2069 28.4398 80.0777L15.75 83.25L19.0753 70.7801C14.8528 64.7544 12.375 57.4166 12.375 49.5C12.375 28.9964 28.9964 12.375 49.5 12.375C70.0035 12.375 86.625 28.9964 86.625 49.5Z" fill="url(#paint0_linear_275_73)"/>
<path fill-rule="evenodd" clip-rule="evenodd" d="M49.5 92.8125C73.4209 92.8125 92.8125 73.4209 92.8125 49.5C92.8125 25.5792 73.4209 6.1875 49.5 6.1875C25.5792 6.1875 6.1875 25.5792 6.1875 49.5C6.1875 57.2681 8.23247 64.5585 11.8134 70.8623L6.1875 92.8125L28.8178 87.5649C34.9637 90.9111 42.0097 92.8125 49.5 92.8125ZM49.5 86.1492C69.7409 86.1492 86.1492 69.7409 86.1492 49.5C86.1492 29.2593 69.7409 12.851 49.5 12.851C29.2593 12.851 12.851 29.2593 12.851 49.5C12.851 57.3151 15.297 64.5588 19.4654 70.5072L16.1827 82.8172L28.7098 79.6854C34.6172 83.762 41.7799 86.1492 49.5 86.1492Z" fill="white"/>
<path d="M38.6719 29.3907C37.6423 27.3222 36.0623 27.5054 34.4665 27.5054C31.6144 27.5054 27.167 30.9217 27.167 37.28C27.167 42.4908 29.4632 48.1951 37.2005 56.7276C44.6676 64.9626 54.4791 69.2224 62.6243 69.0776C70.7695 68.9325 72.4454 61.9233 72.4454 59.5559C72.4454 58.5068 71.7942 57.9834 71.3459 57.8411C68.5702 56.5092 63.4506 54.0271 62.2858 53.5606C61.1211 53.0943 60.5128 53.7251 60.1348 54.0682C59.0786 55.0749 56.9847 58.0415 56.2676 58.7089C55.5508 59.3762 54.4819 59.0383 54.037 58.7862C52.4001 58.1294 47.9621 56.1553 44.4247 52.7259C40.0495 48.4849 39.7927 47.0259 38.9686 45.7269C38.3093 44.688 38.7931 44.0504 39.0345 43.7716C39.9771 42.6842 41.2787 41.0049 41.8625 40.1705C42.4459 39.3361 41.9828 38.0689 41.7047 37.28C40.5089 33.8862 39.4957 31.0455 38.6719 29.3907Z" fill="white"/>
<defs>
<linearGradient id="paint0_linear_275_73" x1="81.9844" y1="21.6562" x2="12.375" y2="86.625" gradientUnits="userSpaceOnUse">
<stop stop-color="#5BD066"/>
<stop offset="1" stop-color="#27B43E"/>
</linearGradient>
</defs>
</svg>
