<svg width="46" height="46" viewBox="0 0 46 46" fill="none" xmlns="http://www.w3.org/2000/svg">
<path d="M19.1667 28.7502L29.1142 23.0002L19.1667 17.2502V28.7502ZM41.3233 13.7427C41.5725 14.6435 41.745 15.851 41.86 17.3843C41.9942 18.9177 42.0517 20.2402 42.0517 21.3902L42.1667 23.0002C42.1667 27.1977 41.86 30.2835 41.3233 32.2577C40.8442 33.9827 39.7325 35.0943 38.0075 35.5735C37.1067 35.8227 35.4583 35.9952 32.9283 36.1102C30.4367 36.2443 28.1558 36.3018 26.0475 36.3018L23 36.4168C14.9692 36.4168 9.96668 36.1102 7.99251 35.5735C6.26751 35.0943 5.15584 33.9827 4.67668 32.2577C4.42751 31.3568 4.25501 30.1493 4.14001 28.616C4.00584 27.0827 3.94834 25.7602 3.94834 24.6102L3.83334 23.0002C3.83334 18.8027 4.14001 15.7168 4.67668 13.7427C5.15584 12.0177 6.26751 10.906 7.99251 10.4268C8.89334 10.1777 10.5417 10.0052 13.0717 9.89016C15.5633 9.756 17.8442 9.6985 19.9525 9.6985L23 9.5835C31.0308 9.5835 36.0333 9.89016 38.0075 10.4268C39.7325 10.906 40.8442 12.0177 41.3233 13.7427Z" fill="white"/>
</svg>
